<svg viewBox="0 0 300 139.519" width="5000px" height="2325.316619873047px" xmlns="http://www.w3.org/2000/svg" xmlns:xlink="http://www.w3.org/1999/xlink" preserveAspectRatio="none"><defs></defs><style>.companyNameVhde1nJ-V {fill:#c8c8c8;fill-opacity:1;}.icon1Vhde1nJ-V {fill:#66cfff;fill-opacity:1;}.icon2Vhde1nJ-V {fill:#43a980;fill-opacity:1;}.icon3Vhde1nJ-V {fill:#27624b;fill-opacity:1;}.textVhde1nJ-V {fill:#c8c8c8;fill-opacity:1;}</style><g opacity="1" transform="rotate(0 0 128.8299)">
        <svg width="300" height="10.6891" x="0" y="128.8299" version="1.1" preserveAspectRatio="none" viewBox="0.56 -28.32 1017.0000000000001 36.24">
          <g transform="matrix(1 0 0 1 0 0)" class="textVhde1nJ-V"><path transform="" stroke="none" d="M22.04-26.48L22.04-23.60L12.80-23.60L12.80 0L9.80 0L9.80-23.60L0.56-23.60L0.56-26.48L22.04-26.48Z"></path>
    <path transform="" stroke="none" d="M29.20-28L32.20-28L32.20-16.88Q33.28-18.32 34.84-19.32Q36.40-20.32 38.40-20.32Q40.40-20.32 41.84-19.76Q43.28-19.20 44.36-18.08L44.36-18.08Q46.84-15.64 46.84-11.64L46.84-11.64L46.84 0L43.84 0L43.84-11.56Q43.84-14.32 42.28-15.96Q40.72-17.60 38.24-17.60L38.24-17.60Q35.72-17.60 33.96-15.92L33.96-15.92Q32.20-14.20 32.20-11.52L32.20-11.52L32.20 0L29.20 0L29.20-28Z"></path>
    <path transform="" stroke="none" d="M64.76-2.40L64.76-2.40Q68.80-2.40 70.56-5.76L70.56-5.76L73.84-5.76Q72.80-3.04 70.54-1.36Q68.28 0.32 64.72 0.32L64.72 0.32Q60.20 0.32 57.36-2.68L57.36-2.68Q54.60-5.60 54.60-10L54.60-10Q54.60-14.44 57.24-17.32L57.24-17.32Q60.04-20.32 64.52-20.32L64.52-20.32Q69-20.32 71.80-17.32L71.80-17.32Q74.44-14.44 74.44-10L74.44-10L74.44-8.80L57.68-8.80Q58-6.04 59.88-4.24L59.88-4.24Q61.80-2.40 64.76-2.40ZM64.52-17.60L64.52-17.60Q61.76-17.60 59.88-15.88L59.88-15.88Q58.12-14.24 57.72-11.60L57.72-11.60L71.32-11.60Q70.92-14.24 69.16-15.88L69.16-15.88Q67.28-17.60 64.52-17.60Z"></path>
    <path transform="" stroke="none" d=""></path>
    <path transform="" stroke="none" d="M103.56-2.40L103.56-2.40Q107.60-2.40 109.36-5.76L109.36-5.76L112.64-5.76Q111.60-3.04 109.34-1.36Q107.08 0.32 103.52 0.32L103.52 0.32Q99 0.32 96.16-2.68L96.16-2.68Q93.40-5.60 93.40-10L93.40-10Q93.40-14.44 96.04-17.32L96.04-17.32Q98.84-20.32 103.32-20.32L103.32-20.32Q107.80-20.32 110.60-17.32L110.60-17.32Q113.24-14.44 113.24-10L113.24-10L113.24-8.80L96.48-8.80Q96.80-6.04 98.68-4.24L98.68-4.24Q100.60-2.40 103.56-2.40ZM103.32-17.60L103.32-17.60Q100.56-17.60 98.68-15.88L98.68-15.88Q96.92-14.24 96.52-11.60L96.52-11.60L110.12-11.60Q109.72-14.24 107.96-15.88L107.96-15.88Q106.08-17.60 103.32-17.60Z"></path>
    <path transform="" stroke="none" d="M130.16-2.40L130.16-2.40Q132.08-2.40 133.56-3.48Q135.04-4.56 135.72-6.28L135.72-6.28L138.96-6.28Q138.04-3.32 135.60-1.52L135.60-1.52Q133.04 0.32 129.52 0.32L129.52 0.32Q125.12 0.32 122.36-2.68L122.36-2.68Q119.68-5.60 119.68-10L119.68-10Q119.68-14.40 122.36-17.32L122.36-17.32Q125.12-20.32 129.52-20.32L129.52-20.32Q133.04-20.32 135.60-18.48L135.60-18.48Q138.04-16.68 138.96-13.72L138.96-13.72L135.72-13.72Q135.04-15.44 133.56-16.52Q132.08-17.60 130.16-17.60Q128.24-17.60 126.90-17Q125.56-16.40 124.64-15.36L124.64-15.36Q122.68-13.20 122.68-10L122.68-10Q122.68-6.80 124.64-4.64L124.64-4.64Q126.64-2.40 130.16-2.40Z"></path>
    <path transform="" stroke="none" d="M155.36-20.32L155.36-20.32Q159.84-20.32 162.64-17.32L162.64-17.32Q165.28-14.44 165.28-10L165.28-10Q165.28-5.56 162.64-2.68L162.64-2.68Q159.84 0.32 155.36 0.32L155.36 0.32Q150.88 0.32 148.08-2.68L148.08-2.68Q145.44-5.56 145.44-10L145.44-10Q145.44-14.44 148.08-17.32L148.08-17.32Q150.88-20.32 155.36-20.32ZM155.36-2.40L155.36-2.40Q158.60-2.40 160.48-4.64L160.48-4.64Q162.28-6.76 162.28-10L162.28-10Q162.28-13.24 160.48-15.36L160.48-15.36Q158.60-17.60 155.36-17.60L155.36-17.60Q152.12-17.60 150.24-15.36L150.24-15.36Q148.44-13.24 148.44-10L148.44-10Q148.44-6.76 150.24-4.64L150.24-4.64Q152.12-2.40 155.36-2.40Z"></path>
    <path transform="" stroke="none" d="M173.24-20L176.24-20L176.24-16.88Q177.32-18.32 178.88-19.32Q180.44-20.32 182.44-20.32Q184.44-20.32 185.88-19.76Q187.32-19.20 188.40-18.08L188.40-18.08Q190.88-15.64 190.88-11.64L190.88-11.64L190.88 0L187.88 0L187.88-11.56Q187.88-14.32 186.32-15.96Q184.76-17.60 182.28-17.60L182.28-17.60Q179.76-17.60 178.00-15.92L178.00-15.92Q176.24-14.20 176.24-11.52L176.24-11.52L176.24 0L173.24 0L173.24-20Z"></path>
    <path transform="" stroke="none" d="M208.56-20.32L208.56-20.32Q213.04-20.32 215.84-17.32L215.84-17.32Q218.48-14.44 218.48-10L218.48-10Q218.48-5.56 215.84-2.68L215.84-2.68Q213.04 0.32 208.56 0.32L208.56 0.32Q204.08 0.32 201.28-2.68L201.28-2.68Q198.64-5.56 198.64-10L198.64-10Q198.64-14.44 201.28-17.32L201.28-17.32Q204.08-20.32 208.56-20.32ZM208.56-2.40L208.56-2.40Q211.80-2.40 213.68-4.64L213.68-4.64Q215.48-6.76 215.48-10L215.48-10Q215.48-13.24 213.68-15.36L213.68-15.36Q211.80-17.60 208.56-17.60L208.56-17.60Q205.32-17.60 203.44-15.36L203.44-15.36Q201.64-13.24 201.64-10L201.64-10Q201.64-6.76 203.44-4.64L203.44-4.64Q205.32-2.40 208.56-2.40Z"></path>
    <path transform="" stroke="none" d="M229.44-20L229.44-16.96Q231.44-20.32 235.52-20.32L235.52-20.32Q237.52-20.32 239.22-19.26Q240.92-18.20 241.88-16.28L241.88-16.28Q243.24-18.80 246.12-19.88L246.12-19.88Q247.28-20.32 248.74-20.32Q250.20-20.32 251.54-19.74Q252.88-19.16 253.92-18.08L253.92-18.08Q256.16-15.68 256.16-12.08L256.16-12.08L256.16 0L253.16 0L253.16-12Q253.16-14.48 251.76-16.08L251.76-16.08Q250.36-17.60 248.20-17.60L248.20-17.60Q245.92-17.60 244.40-16.12L244.40-16.12Q242.80-14.60 242.80-11.96L242.80-11.96L242.80 0L239.80 0L239.80-12Q239.80-14.48 238.40-16.08L238.40-16.08Q237.00-17.60 234.84-17.60L234.84-17.60Q232.56-17.60 231.04-16.12L231.04-16.12Q229.44-14.60 229.44-11.96L229.44-11.96L229.44 0L226.44 0L226.44-20L229.44-20Z"></path>
    <path transform="" stroke="none" d="M281.80-20L269.96 7.92L266.72 7.92L270.36-0.28L262.20-20L265.52-20L271.96-3.60L278.52-20L281.80-20Z"></path>
    <path transform="" stroke="none" d=""></path>
    <path transform="" stroke="none" d="M309.72-20.32L309.72-20.32Q314.20-20.32 317.00-17.32L317.00-17.32Q319.64-14.44 319.64-10L319.64-10Q319.64-5.56 317.00-2.68L317.00-2.68Q314.20 0.32 309.72 0.32L309.72 0.32Q305.24 0.32 302.44-2.68L302.44-2.68Q299.80-5.56 299.80-10L299.80-10Q299.80-14.44 302.44-17.32L302.44-17.32Q305.24-20.32 309.72-20.32ZM309.72-2.40L309.72-2.40Q312.96-2.40 314.84-4.64L314.84-4.64Q316.64-6.76 316.64-10L316.64-10Q316.64-13.24 314.84-15.36L314.84-15.36Q312.96-17.60 309.72-17.60L309.72-17.60Q306.48-17.60 304.60-15.36L304.60-15.36Q302.80-13.24 302.80-10L302.80-10Q302.80-6.76 304.60-4.64L304.60-4.64Q306.48-2.40 309.72-2.40Z"></path>
    <path transform="" stroke="none" d="M336.36-25.48L335.96-25.48Q333.84-25.48 332.78-24.54Q331.72-23.60 331.72-21.52L331.72-21.52L331.72-20L336.36-20L336.36-17.36L331.72-17.36L331.72 0L328.72 0L328.72-17.36L325.28-17.36L325.28-20L328.72-20L328.72-21.76Q328.72-25.04 330.68-26.68Q332.64-28.32 336.12-28.32L336.12-28.32L336.36-28.32L336.36-25.48Z"></path>
    <path transform="" stroke="none" d=""></path>
    <path transform="" stroke="none" d="M356.16-28L359.16-28L359.16-16.88Q360.24-18.32 361.80-19.32Q363.36-20.32 365.36-20.32Q367.36-20.32 368.80-19.76Q370.24-19.20 371.32-18.08L371.32-18.08Q373.80-15.64 373.80-11.64L373.80-11.64L373.80 0L370.80 0L370.80-11.56Q370.80-14.32 369.24-15.96Q367.68-17.60 365.20-17.60L365.20-17.60Q362.68-17.60 360.92-15.92L360.92-15.92Q359.16-14.20 359.16-11.52L359.16-11.52L359.16 0L356.16 0L356.16-28Z"></path>
    <path transform="" stroke="none" d="M391.48-20.32L391.48-20.32Q395.96-20.32 398.76-17.32L398.76-17.32Q401.40-14.44 401.40-10L401.40-10Q401.40-5.56 398.76-2.68L398.76-2.68Q395.96 0.32 391.48 0.32L391.48 0.32Q387.00 0.32 384.20-2.68L384.20-2.68Q381.56-5.56 381.56-10L381.56-10Q381.56-14.44 384.20-17.32L384.20-17.32Q387.00-20.32 391.48-20.32ZM391.48-2.40L391.48-2.40Q394.72-2.40 396.60-4.64L396.60-4.64Q398.40-6.76 398.40-10L398.40-10Q398.40-13.24 396.60-15.36L396.60-15.36Q394.72-17.60 391.48-17.60L391.48-17.60Q388.24-17.60 386.36-15.36L386.36-15.36Q384.56-13.24 384.56-10L384.56-10Q384.56-6.76 386.36-4.64L386.36-4.64Q388.24-2.40 391.48-2.40Z"></path>
    <path transform="" stroke="none" d="M412.36-20L412.36-16.96Q414.36-20.32 418.44-20.32L418.44-20.32Q420.44-20.32 422.14-19.26Q423.84-18.20 424.80-16.28L424.80-16.28Q426.16-18.80 429.04-19.88L429.04-19.88Q430.20-20.32 431.66-20.32Q433.12-20.32 434.46-19.74Q435.80-19.16 436.84-18.08L436.84-18.08Q439.08-15.68 439.08-12.08L439.08-12.08L439.08 0L436.08 0L436.08-12Q436.08-14.48 434.68-16.08L434.68-16.08Q433.28-17.60 431.12-17.60L431.12-17.60Q428.84-17.60 427.32-16.12L427.32-16.12Q425.72-14.60 425.72-11.96L425.72-11.96L425.72 0L422.72 0L422.72-12Q422.72-14.48 421.32-16.08L421.32-16.08Q419.92-17.60 417.76-17.60L417.76-17.60Q415.48-17.60 413.96-16.12L413.96-16.12Q412.36-14.60 412.36-11.96L412.36-11.96L412.36 0L409.36 0L409.36-20L412.36-20Z"></path>
    <path transform="" stroke="none" d="M457-2.40L457-2.40Q461.04-2.40 462.80-5.76L462.80-5.76L466.08-5.76Q465.04-3.04 462.78-1.36Q460.52 0.32 456.96 0.32L456.96 0.32Q452.44 0.32 449.60-2.68L449.60-2.68Q446.84-5.60 446.84-10L446.84-10Q446.84-14.44 449.48-17.32L449.48-17.32Q452.28-20.32 456.76-20.32L456.76-20.32Q461.24-20.32 464.04-17.32L464.04-17.32Q466.68-14.44 466.68-10L466.68-10L466.68-8.80L449.92-8.80Q450.24-6.04 452.12-4.24L452.12-4.24Q454.04-2.40 457-2.40ZM456.76-17.60L456.76-17.60Q454-17.60 452.12-15.88L452.12-15.88Q450.36-14.24 449.96-11.60L449.96-11.60L463.56-11.60Q463.16-14.24 461.40-15.88L461.40-15.88Q459.52-17.60 456.76-17.60Z"></path>
    <path transform="" stroke="none" d=""></path>
    <path transform="" stroke="none" d="M502.48 0L502.48-3.20Q500.08 0.32 495.32 0.32L495.32 0.32Q491 0.32 488.28-2.68L488.28-2.68Q485.64-5.64 485.64-10L485.64-10Q485.64-14.36 488.28-17.32L488.28-17.32Q491-20.32 495.52-20.32Q500.04-20.32 502.48-16.76L502.48-16.76L502.48-20L505.48-20L505.48 0L502.48 0ZM495.72-2.40L495.72-2.40Q498.96-2.40 500.84-4.64L500.84-4.64Q502.64-6.76 502.64-10L502.64-10Q502.64-13.24 500.84-15.36L500.84-15.36Q498.96-17.60 495.72-17.60L495.72-17.60Q492.52-17.60 490.52-15.36L490.52-15.36Q488.64-13.24 488.64-10L488.64-10Q488.64-6.76 490.52-4.64L490.52-4.64Q492.52-2.40 495.72-2.40Z"></path>
    <path transform="" stroke="none" d="M514.68-20L517.68-20L517.68-16.88Q518.76-18.32 520.32-19.32Q521.88-20.32 523.88-20.32Q525.88-20.32 527.32-19.76Q528.76-19.20 529.84-18.08L529.84-18.08Q532.32-15.64 532.32-11.64L532.32-11.64L532.32 0L529.32 0L529.32-11.56Q529.32-14.32 527.76-15.96Q526.20-17.60 523.72-17.60L523.72-17.60Q521.20-17.60 519.44-15.92L519.44-15.92Q517.68-14.20 517.68-11.52L517.68-11.52L517.68 0L514.68 0L514.68-20Z"></path>
    <path transform="" stroke="none" d="M556.92 0L556.92-3.20Q554.52 0.32 549.76 0.32L549.76 0.32Q545.44 0.32 542.72-2.68L542.72-2.68Q540.08-5.64 540.08-10L540.08-10Q540.08-14.36 542.72-17.32L542.72-17.32Q545.44-20.32 549.96-20.32Q554.48-20.32 556.92-16.76L556.92-16.76L556.92-28L559.92-28L559.92 0L556.92 0ZM550.16-2.40L550.16-2.40Q553.40-2.40 555.28-4.64L555.28-4.64Q557.08-6.76 557.08-10L557.08-10Q557.08-13.24 555.28-15.36L555.28-15.36Q553.40-17.60 550.16-17.60L550.16-17.60Q546.96-17.60 544.96-15.36L544.96-15.36Q543.08-13.24 543.08-10L543.08-10Q543.08-6.76 544.96-4.64L544.96-4.64Q546.96-2.40 550.16-2.40Z"></path>
    <path transform="" stroke="none" d=""></path>
    <path transform="" stroke="none" d="M586.80 0L583.80 0L583.80-17.36L579.72-17.36L579.72-20L583.80-20L583.80-27.16L586.80-27.16L586.80-20L591.40-20L591.40-17.36L586.80-17.36L586.80 0Z"></path>
    <path transform="" stroke="none" d="M598.68-28L601.68-28L601.68-16.88Q602.76-18.32 604.32-19.32Q605.88-20.32 607.88-20.32Q609.88-20.32 611.32-19.76Q612.76-19.20 613.84-18.08L613.84-18.08Q616.32-15.64 616.32-11.64L616.32-11.64L616.32 0L613.32 0L613.32-11.56Q613.32-14.32 611.76-15.96Q610.20-17.60 607.72-17.60L607.72-17.60Q605.20-17.60 603.44-15.92L603.44-15.92Q601.68-14.20 601.68-11.52L601.68-11.52L601.68 0L598.68 0L598.68-28Z"></path>
    <path transform="" stroke="none" d="M634.24-2.40L634.24-2.40Q638.28-2.40 640.04-5.76L640.04-5.76L643.32-5.76Q642.28-3.04 640.02-1.36Q637.76 0.32 634.20 0.32L634.20 0.32Q629.68 0.32 626.84-2.68L626.84-2.68Q624.08-5.60 624.08-10L624.08-10Q624.08-14.44 626.72-17.32L626.72-17.32Q629.52-20.32 634.00-20.32L634.00-20.32Q638.48-20.32 641.28-17.32L641.28-17.32Q643.92-14.44 643.92-10L643.92-10L643.92-8.80L627.16-8.80Q627.48-6.04 629.36-4.24L629.36-4.24Q631.28-2.40 634.24-2.40ZM634.00-17.60L634.00-17.60Q631.24-17.60 629.36-15.88L629.36-15.88Q627.60-14.24 627.20-11.60L627.20-11.60L640.80-11.60Q640.40-14.24 638.64-15.88L638.64-15.88Q636.76-17.60 634.00-17.60Z"></path>
    <path transform="" stroke="none" d=""></path>
    <path transform="" stroke="none" d="M674.48-20.32L674.68-20.32L674.68-17.32L674.32-17.32Q671.08-17.32 669.04-14.72L669.04-14.72Q667.12-12.24 667.12-8.80L667.12-8.80L667.12 0L664.12 0L664.12-20L667.12-20L667.12-15.08Q668.08-18.20 671.28-19.68L671.28-19.68Q672.60-20.32 674.48-20.32L674.48-20.32Z"></path>
    <path transform="" stroke="none" d="M690.32-2.40L690.32-2.40Q694.36-2.40 696.12-5.76L696.12-5.76L699.40-5.76Q698.36-3.04 696.10-1.36Q693.84 0.32 690.28 0.32L690.28 0.32Q685.76 0.32 682.92-2.68L682.92-2.68Q680.16-5.60 680.16-10L680.16-10Q680.16-14.44 682.80-17.32L682.80-17.32Q685.60-20.32 690.08-20.32L690.08-20.32Q694.56-20.32 697.36-17.32L697.36-17.32Q700.00-14.44 700.00-10L700.00-10L700.00-8.80L683.24-8.80Q683.56-6.04 685.44-4.24L685.44-4.24Q687.36-2.40 690.32-2.40ZM690.08-17.60L690.08-17.60Q687.32-17.60 685.44-15.88L685.44-15.88Q683.68-14.24 683.28-11.60L683.28-11.60L696.88-11.60Q696.48-14.24 694.72-15.88L694.72-15.88Q692.84-17.60 690.08-17.60Z"></path>
    <path transform="" stroke="none" d="M722.48-14.64L719.44-14.64Q719.04-17.76 714.42-17.76Q709.80-17.76 709.80-14.88L709.80-14.88Q709.80-13.68 710.78-13.06Q711.76-12.44 713.24-12.04Q714.72-11.64 716.46-11.30Q718.20-10.96 719.68-10.34Q721.16-9.72 722.14-8.64Q723.12-7.56 723.12-5.68L723.12-5.68Q723.12-2.76 720.92-1.22Q718.72 0.32 714.96 0.32L714.96 0.32Q710.96 0.32 708.60-1.68L708.60-1.68Q706.44-3.44 706.28-6.28L706.28-6.28L709.40-6.28Q709.68-3.52 712.52-2.56L712.52-2.56Q713.56-2.24 714.58-2.24Q715.60-2.24 716.48-2.36Q717.36-2.48 718.20-2.80L718.20-2.80Q720.12-3.56 720.12-5.40L720.12-5.40Q720.12-6.64 719.14-7.30Q718.16-7.96 716.68-8.38Q715.20-8.80 713.46-9.14Q711.72-9.48 710.24-10.08Q708.76-10.68 707.78-11.72Q706.80-12.76 706.80-14.60L706.80-14.60Q706.80-17.32 708.78-18.82Q710.76-20.32 714.64-20.32L714.64-20.32Q718.32-20.32 720.44-18.56L720.44-18.56Q722.20-17.08 722.48-14.64L722.48-14.64Z"></path>
    <path transform="" stroke="none" d="M736.12 0L733.12 0L733.12-17.36L729.04-17.36L729.04-20L733.12-20L733.12-27.16L736.12-27.16L736.12-20L740.72-20L740.72-17.36L736.12-17.36L736.12 0Z"></path>
    <path transform="" stroke="none" d=""></path>
    <path transform="" stroke="none" d="M769.20-20.32L769.20-20.32Q773.68-20.32 776.48-17.32L776.48-17.32Q779.12-14.44 779.12-10L779.12-10Q779.12-5.56 776.48-2.68L776.48-2.68Q773.68 0.32 769.20 0.32L769.20 0.32Q764.72 0.32 761.92-2.68L761.92-2.68Q759.28-5.56 759.28-10L759.28-10Q759.28-14.44 761.92-17.32L761.92-17.32Q764.72-20.32 769.20-20.32ZM769.20-2.40L769.20-2.40Q772.44-2.40 774.32-4.64L774.32-4.64Q776.12-6.76 776.12-10L776.12-10Q776.12-13.24 774.32-15.36L774.32-15.36Q772.44-17.60 769.20-17.60L769.20-17.60Q765.96-17.60 764.08-15.36L764.08-15.36Q762.28-13.24 762.28-10L762.28-10Q762.28-6.76 764.08-4.64L764.08-4.64Q765.96-2.40 769.20-2.40Z"></path>
    <path transform="" stroke="none" d="M795.84-25.48L795.44-25.48Q793.32-25.48 792.26-24.54Q791.20-23.60 791.20-21.52L791.20-21.52L791.20-20L795.84-20L795.84-17.36L791.20-17.36L791.20 0L788.20 0L788.20-17.36L784.76-17.36L784.76-20L788.20-20L788.20-21.76Q788.20-25.04 790.16-26.68Q792.12-28.32 795.60-28.32L795.60-28.32L795.84-28.32L795.84-25.48Z"></path>
    <path transform="" stroke="none" d=""></path>
    <path transform="" stroke="none" d="M820.80 0L817.80 0L817.80-17.36L813.72-17.36L813.72-20L817.80-20L817.80-27.16L820.80-27.16L820.80-20L825.40-20L825.40-17.36L820.80-17.36L820.80 0Z"></path>
    <path transform="" stroke="none" d="M832.68-28L835.68-28L835.68-16.88Q836.76-18.32 838.32-19.32Q839.88-20.32 841.88-20.32Q843.88-20.32 845.32-19.76Q846.76-19.20 847.84-18.08L847.84-18.08Q850.32-15.64 850.32-11.64L850.32-11.64L850.32 0L847.32 0L847.32-11.56Q847.32-14.32 845.76-15.96Q844.20-17.60 841.72-17.60L841.72-17.60Q839.20-17.60 837.44-15.92L837.44-15.92Q835.68-14.20 835.68-11.52L835.68-11.52L835.68 0L832.68 0L832.68-28Z"></path>
    <path transform="" stroke="none" d="M868.24-2.40L868.24-2.40Q872.28-2.40 874.04-5.76L874.04-5.76L877.32-5.76Q876.28-3.04 874.02-1.36Q871.76 0.32 868.20 0.32L868.20 0.32Q863.68 0.32 860.84-2.68L860.84-2.68Q858.08-5.60 858.08-10L858.08-10Q858.08-14.44 860.72-17.32L860.72-17.32Q863.52-20.32 868.00-20.32L868.00-20.32Q872.48-20.32 875.28-17.32L875.28-17.32Q877.92-14.44 877.92-10L877.92-10L877.92-8.80L861.16-8.80Q861.48-6.04 863.36-4.24L863.36-4.24Q865.28-2.40 868.24-2.40ZM868.00-17.60L868.00-17.60Q865.24-17.60 863.36-15.88L863.36-15.88Q861.60-14.24 861.20-11.60L861.20-11.60L874.80-11.60Q874.40-14.24 872.64-15.88L872.64-15.88Q870.76-17.60 868.00-17.60Z"></path>
    <path transform="" stroke="none" d="M885.60 0L885.60-20L888.60-20L888.60 0L885.60 0ZM885.48-27.28L888.72-27.28L888.72-23.36L885.48-23.36L885.48-27.28Z"></path>
    <path transform="" stroke="none" d="M908.16-20.32L908.36-20.32L908.36-17.32L908.00-17.32Q904.76-17.32 902.72-14.72L902.72-14.72Q900.80-12.24 900.80-8.80L900.80-8.80L900.80 0L897.80 0L897.80-20L900.80-20L900.80-15.08Q901.76-18.20 904.96-19.68L904.96-19.68Q906.28-20.32 908.16-20.32L908.16-20.32Z"></path>
    <path transform="" stroke="none" d=""></path>
    <path transform="" stroke="none" d="M931.12-28L931.12 0L928.12 0L928.12-28L931.12-28Z"></path>
    <path transform="" stroke="none" d="M940.32 0L940.32-20L943.32-20L943.32 0L940.32 0ZM940.20-27.28L943.44-27.28L943.44-23.36L940.20-23.36L940.20-27.28Z"></path>
    <path transform="" stroke="none" d="M966.00-20L969.28-20L961.48 0L957.96 0L950.12-20L953.40-20L959.72-3.20L966.00-20Z"></path>
    <path transform="" stroke="none" d="M984.76-2.40L984.76-2.40Q988.80-2.40 990.56-5.76L990.56-5.76L993.84-5.76Q992.80-3.04 990.54-1.36Q988.28 0.32 984.72 0.32L984.72 0.32Q980.20 0.32 977.36-2.68L977.36-2.68Q974.60-5.60 974.60-10L974.60-10Q974.60-14.44 977.24-17.32L977.24-17.32Q980.04-20.32 984.52-20.32L984.52-20.32Q989.00-20.32 991.80-17.32L991.80-17.32Q994.44-14.44 994.44-10L994.44-10L994.44-8.80L977.68-8.80Q978.00-6.04 979.88-4.24L979.88-4.24Q981.80-2.40 984.76-2.40ZM984.52-17.60L984.52-17.60Q981.76-17.60 979.88-15.88L979.88-15.88Q978.12-14.24 977.72-11.60L977.72-11.60L991.32-11.60Q990.92-14.24 989.16-15.88L989.16-15.88Q987.28-17.60 984.52-17.60Z"></path>
    <path transform="" stroke="none" d="M1016.92-14.64L1013.88-14.64Q1013.48-17.76 1008.86-17.76Q1004.24-17.76 1004.24-14.88L1004.24-14.88Q1004.24-13.68 1005.22-13.06Q1006.20-12.44 1007.68-12.04Q1009.16-11.64 1010.90-11.30Q1012.64-10.96 1014.12-10.34Q1015.60-9.72 1016.58-8.64Q1017.56-7.56 1017.56-5.68L1017.56-5.68Q1017.56-2.76 1015.36-1.22Q1013.16 0.32 1009.40 0.32L1009.40 0.32Q1005.40 0.32 1003.04-1.68L1003.04-1.68Q1000.88-3.44 1000.72-6.28L1000.72-6.28L1003.84-6.28Q1004.12-3.52 1006.96-2.56L1006.96-2.56Q1008.00-2.24 1009.02-2.24Q1010.04-2.24 1010.92-2.36Q1011.80-2.48 1012.64-2.80L1012.64-2.80Q1014.56-3.56 1014.56-5.40L1014.56-5.40Q1014.56-6.64 1013.58-7.30Q1012.60-7.96 1011.12-8.38Q1009.64-8.80 1007.90-9.14Q1006.16-9.48 1004.68-10.08Q1003.20-10.68 1002.22-11.72Q1001.24-12.76 1001.24-14.60L1001.24-14.60Q1001.24-17.32 1003.22-18.82Q1005.20-20.32 1009.08-20.32L1009.08-20.32Q1012.76-20.32 1014.88-18.56L1014.88-18.56Q1016.64-17.08 1016.92-14.64L1016.92-14.64Z"></path>
    </g>
        </svg>
      </g><g opacity="1" transform="rotate(0 29.783999999999992 93.82490000000001)">
        <svg width="240.0615" height="23.7534" x="29.783999999999992" y="93.82490000000001" version="1.1" preserveAspectRatio="none" viewBox="1.2 -33.2 440.64 43.60000000000001">
          <g transform="matrix(1 0 0 1 0 0)" class="companyNameVhde1nJ-V"><path transform="" stroke="none" d="M23.08-7.48L23.24-7.48L32.48-30.80L44.16-30.80L44.16-29.20Q42.84-29.20 42.02-28.94Q41.20-28.68 40.76-28Q40.32-27.32 40.18-26.14Q40.04-24.96 40.04-23.16L40.04-23.16L40.04-7.64Q40.04-5.64 40.20-4.48Q40.36-3.32 40.84-2.68Q41.32-2.04 42.22-1.84Q43.12-1.64 44.60-1.60L44.60-1.60L44.60 0L29.56 0L29.56-1.60Q31.04-1.64 31.94-1.86Q32.84-2.08 33.34-2.68Q33.84-3.28 34-4.38Q34.16-5.48 34.16-7.36L34.16-7.36L34.16-26.08L33.96-26.08L23.20 0.40L20.24 0.40L9.12-26.08L8.96-26.08L8.96-7.64Q8.96-5.64 9.12-4.48Q9.28-3.32 9.76-2.68Q10.24-2.04 11.14-1.84Q12.04-1.64 13.52-1.60L13.52-1.60L13.52 0L1.20 0L1.20-1.60Q2.68-1.64 3.60-1.86Q4.52-2.08 5.02-2.68Q5.52-3.28 5.68-4.38Q5.84-5.48 5.84-7.36L5.84-7.36L5.84-23.44Q5.84-25.12 5.68-26.24Q5.52-27.36 5.08-28.02Q4.64-28.68 3.82-28.94Q3-29.20 1.64-29.20L1.64-29.20L1.64-30.80L13.76-30.80L23.08-7.48Z"></path>
    <path transform="" stroke="none" d="M67.12-12.92L57.96 6.28Q57.52 7.16 56.86 7.92Q56.20 8.68 55.38 9.22Q54.56 9.76 53.68 10.08Q52.80 10.40 51.92 10.40L51.92 10.40Q50.60 10.40 49.80 9.76Q49.00 9.12 49.00 8.04L49.00 8.04Q49.00 7.04 49.70 6.48Q50.40 5.92 51.96 5.80L51.96 5.80Q55.52 5.52 56.56 3.56L56.56 3.56L57.64 1.48L50.56-16.04Q50.08-17.20 49.74-17.88Q49.40-18.56 49.00-18.94Q48.60-19.32 48.08-19.44Q47.56-19.56 46.80-19.60L46.80-19.60L46.80-21.20L58.92-21.20L58.92-19.60Q57.36-19.60 56.74-19.30Q56.12-19 56.12-18.20L56.12-18.20Q56.12-17.88 56.22-17.46Q56.32-17.04 56.48-16.60L56.48-16.60L60.56-4.92L60.72-4.92L64.16-12.72Q64.68-13.96 65.04-14.78Q65.40-15.60 65.58-16.18Q65.76-16.76 65.84-17.12Q65.92-17.48 65.92-17.84L65.92-17.84Q65.92-18.88 65.34-19.24Q64.76-19.60 63-19.60L63-19.60L63-21.20L72.64-21.20L72.64-19.60Q71.84-19.60 71.28-19.38Q70.72-19.16 70.14-18.48Q69.56-17.80 68.86-16.46Q68.16-15.12 67.12-12.92L67.12-12.92Z"></path>
    <path transform="" stroke="none" d=""></path>
    <path transform="" stroke="none" d="M97.24-11.72L97.24-6.44Q97.24-4.92 97.38-4Q97.52-3.08 97.92-2.56Q98.32-2.04 99.06-1.84Q99.80-1.64 101.04-1.60L101.04-1.60L101.04 0L87.16 0L87.16-1.60Q88.48-1.64 89.32-1.84Q90.16-2.04 90.60-2.52Q91.04-3 91.20-3.88Q91.36-4.76 91.36-6.16L91.36-6.16L91.36-24.64Q91.36-26 91.22-26.88Q91.08-27.76 90.68-28.24Q90.28-28.72 89.54-28.92Q88.80-29.12 87.60-29.20L87.60-29.20L87.60-30.80L101.40-30.80L101.40-29.20Q100.04-29.16 99.22-28.96Q98.40-28.76 97.96-28.24Q97.52-27.72 97.38-26.80Q97.24-25.88 97.24-24.36L97.24-24.36L97.24-15.48L107.60-26.60Q108.52-27.60 108.52-28.28L108.52-28.28Q108.52-28.72 107.94-28.96Q107.36-29.20 105.80-29.20L105.80-29.20L105.80-30.80L116.72-30.80L116.72-29.24Q115.84-29.20 115.18-29.08Q114.52-28.96 113.86-28.56Q113.20-28.16 112.38-27.42Q111.56-26.68 110.36-25.44L110.36-25.44L103.24-18L115-3.68Q115.84-2.64 116.86-2.16Q117.88-1.68 119.48-1.60L119.48-1.60L119.48 0L104.68 0L104.68-1.60Q106.32-1.64 107.04-1.88Q107.76-2.12 107.76-2.68L107.76-2.68Q107.76-2.88 107.70-3.06Q107.64-3.24 107.50-3.50Q107.36-3.76 107.08-4.14Q106.80-4.52 106.32-5.08L106.32-5.08L99.24-13.80L97.24-11.72Z"></path>
    <path transform="" stroke="none" d="M130.92-21.60L130.92-6.56Q130.92-4.96 131.04-4Q131.16-3.04 131.52-2.52Q131.88-2 132.56-1.82Q133.24-1.64 134.40-1.60L134.40-1.60L134.40 0L121.80 0L121.80-1.60Q122.92-1.64 123.62-1.86Q124.32-2.08 124.70-2.58Q125.08-3.08 125.22-3.98Q125.36-4.88 125.36-6.28L125.36-6.28L125.36-11.20Q125.36-13.52 125.28-15.02Q125.20-16.52 125.08-17.08L125.08-17.08Q124.88-18.08 124.18-18.40Q123.48-18.72 121.64-18.72L121.64-18.72L121.64-20.08L130.92-21.60ZM125.04-30.08L125.04-30.08Q125.04-31.40 125.94-32.30Q126.84-33.20 128.12-33.20L128.12-33.20Q129.44-33.20 130.34-32.30Q131.24-31.40 131.24-30.08L131.24-30.08Q131.24-28.80 130.34-27.90Q129.44-27 128.12-27L128.12-27Q126.84-27 125.94-27.90Q125.04-28.80 125.04-30.08Z"></path>
    <path transform="" stroke="none" d="M156.32 0.40L156.32-2.56L156.16-2.56Q153.40 0.40 149 0.40L149 0.40Q146.72 0.40 144.82-0.40Q142.92-1.20 141.54-2.64Q140.16-4.08 139.40-6.06Q138.64-8.04 138.64-10.44L138.64-10.44Q138.64-12.84 139.42-14.88Q140.20-16.92 141.54-18.42Q142.88-19.92 144.74-20.76Q146.60-21.60 148.76-21.60L148.76-21.60Q150.76-21.60 152.30-21Q153.84-20.40 155-18.96L155-18.96L155.16-18.96L155.16-22.36Q155.16-24.72 155.10-26.42Q155.04-28.12 154.92-28.64L154.92-28.64Q154.72-29.48 153.70-29.86Q152.68-30.24 150.56-30.24L150.56-30.24L150.56-31.60L160.68-33.20L160.68-10.32Q160.68-7.32 160.74-5.70Q160.80-4.08 160.96-3.24L160.96-3.24Q161.04-2.72 161.20-2.40Q161.36-2.08 161.68-1.90Q162-1.72 162.54-1.66Q163.08-1.60 163.92-1.60L163.92-1.60L163.92-0.04L156.32 0.40ZM155.08-9.92L155.08-11.48Q155.08-13 154.76-14.30Q154.44-15.60 153.80-16.60L153.80-16.60Q153.08-17.76 151.96-18.36Q150.84-18.96 149.56-18.96L149.56-18.96Q147.20-18.96 145.96-16.80Q144.72-14.64 144.72-10.52L144.72-10.52Q144.72-6.36 145.96-4.12Q147.20-1.88 149.52-1.88L149.52-1.88Q150.84-1.88 152.04-2.56Q153.24-3.24 154-4.40L154-4.40Q154.56-5.28 154.82-6.58Q155.08-7.88 155.08-9.92L155.08-9.92Z"></path>
    <path transform="" stroke="none" d="M171.12-1.40L170.24 0L169 0L169-7.28L170.68-7.28Q171.36-4.40 172.64-3.08Q173.92-1.76 175.96-1.76L175.96-1.76Q177.44-1.76 178.26-2.38Q179.08-3 179.08-4.08L179.08-4.08Q179.08-5.20 178.08-6.26Q177.08-7.32 174.84-8.52L174.84-8.52Q171.80-10.16 170.48-11.78Q169.16-13.40 169.16-15.44L169.16-15.44Q169.16-16.76 169.66-17.90Q170.16-19.04 171.02-19.88Q171.88-20.72 173.08-21.18Q174.28-21.64 175.68-21.64L175.68-21.64Q176.92-21.64 178.14-21.28Q179.36-20.92 180.28-20.28L180.28-20.28L181-21.24L182.04-21.24L182.04-15.20L180.48-15.20Q179.56-17.48 178.58-18.48Q177.60-19.48 176.20-19.48L176.20-19.48Q175.08-19.48 174.42-18.88Q173.76-18.28 173.76-17.28L173.76-17.28Q173.76-16.16 174.74-15.16Q175.72-14.16 178-12.96L178-12.96Q179.60-12.08 180.76-11.24Q181.92-10.40 182.64-9.54Q183.36-8.68 183.70-7.74Q184.04-6.80 184.04-5.72L184.04-5.72Q184.04-4.32 183.52-3.20Q183-2.08 182.04-1.28Q181.08-0.48 179.74-0.04Q178.40 0.40 176.76 0.40L176.76 0.40Q175.04 0.40 173.56-0.06Q172.08-0.52 171.12-1.40L171.12-1.40Z"></path>
    <path transform="" stroke="none" d="M192.16-22.16L190.52-22.16Q190.32-23.24 190.06-24.56Q189.80-25.88 189.56-27.12Q189.32-28.36 189.16-29.36Q189-30.36 189-30.84L189-30.84Q189-31.88 189.66-32.54Q190.32-33.20 191.32-33.20L191.32-33.20Q192.36-33.20 193.02-32.52Q193.68-31.84 193.68-30.80L193.68-30.80Q193.68-30.32 193.50-29.32Q193.32-28.32 193.08-27.10Q192.84-25.88 192.58-24.56Q192.32-23.24 192.16-22.16L192.16-22.16Z"></path>
    <path transform="" stroke="none" d=""></path>
    <path transform="" stroke="none" d="M228.80-6.92L227.88-9.32L216.56-9.32Q214.68-5.08 214.68-3.44L214.68-3.44Q214.68-2.24 215.58-1.92Q216.48-1.60 218.28-1.60L218.28-1.60L218.28 0L207.32 0L207.32-1.60Q208.28-1.72 208.98-1.92Q209.68-2.12 210.22-2.48Q210.76-2.84 211.16-3.42Q211.56-4 211.92-4.84L211.92-4.84L222.44-31.20L225.40-31.20L234.96-7.84Q235.80-5.80 236.38-4.64Q236.96-3.48 237.62-2.86Q238.28-2.24 239.14-2Q240-1.76 241.36-1.64L241.36-1.64L241.36 0L226.24 0L226.24-1.64Q228.16-1.72 229-2.04Q229.84-2.36 229.84-3.32L229.84-3.32Q229.84-3.88 229.56-4.76Q229.28-5.64 228.80-6.92L228.80-6.92ZM222.24-23.84L217.48-11.72L227-11.72L222.40-23.84L222.24-23.84Z"></path>
    <path transform="" stroke="none" d="M252.08-33.20L252.08-6.56Q252.08-4.96 252.20-4Q252.32-3.04 252.68-2.52Q253.04-2 253.72-1.82Q254.40-1.64 255.56-1.60L255.56-1.60L255.56 0L242.96 0L242.96-1.60Q244.08-1.64 244.78-1.86Q245.48-2.08 245.86-2.58Q246.24-3.08 246.38-3.98Q246.52-4.88 246.52-6.28L246.52-6.28L246.52-22.80Q246.52-25.12 246.44-26.62Q246.36-28.12 246.24-28.68L246.24-28.68Q246.04-29.68 245.34-30Q244.64-30.32 242.80-30.32L242.80-30.32L242.80-31.68L252.08-33.20Z"></path>
    <path transform="" stroke="none" d="M268.28-33.20L268.28-6.56Q268.28-4.96 268.40-4Q268.52-3.04 268.88-2.52Q269.24-2 269.92-1.82Q270.60-1.64 271.76-1.60L271.76-1.60L271.76 0L259.16 0L259.16-1.60Q260.28-1.64 260.98-1.86Q261.68-2.08 262.06-2.58Q262.44-3.08 262.58-3.98Q262.72-4.88 262.72-6.28L262.72-6.28L262.72-22.80Q262.72-25.12 262.64-26.62Q262.56-28.12 262.44-28.68L262.44-28.68Q262.24-29.68 261.54-30Q260.84-30.32 259-30.32L259-30.32L259-31.68L268.28-33.20Z"></path>
    <path transform="" stroke="none" d="M287.72-21.60L287.72-21.60Q290.12-21.60 292.26-20.78Q294.40-19.96 296.02-18.52Q297.64-17.08 298.58-15.10Q299.52-13.12 299.52-10.76L299.52-10.76Q299.52-8.32 298.58-6.28Q297.64-4.24 296.02-2.76Q294.40-1.28 292.26-0.44Q290.12 0.40 287.72 0.40L287.72 0.40Q285.36 0.40 283.24-0.42Q281.12-1.24 279.52-2.72Q277.92-4.20 277.00-6.26Q276.08-8.32 276.08-10.76L276.08-10.76Q276.08-13.12 277.00-15.12Q277.92-17.12 279.52-18.56Q281.12-20 283.24-20.80Q285.36-21.60 287.72-21.60ZM287.72-19.28L287.72-19.28Q286.52-19.28 285.52-18.66Q284.52-18.04 283.82-16.92Q283.12-15.80 282.74-14.22Q282.36-12.64 282.36-10.72L282.36-10.72Q282.36-8.72 282.74-7.12Q283.12-5.52 283.82-4.40Q284.52-3.28 285.50-2.66Q286.48-2.04 287.72-2.04L287.72-2.04Q288.96-2.04 289.98-2.66Q291.00-3.28 291.72-4.42Q292.44-5.56 292.84-7.16Q293.24-8.76 293.24-10.72L293.24-10.72Q293.24-12.64 292.84-14.20Q292.44-15.76 291.72-16.90Q291.00-18.04 289.98-18.66Q288.96-19.28 287.72-19.28Z"></path>
    <path transform="" stroke="none" d="M320.04-13.80L314.64 0.40L311.64 0.40L306.16-16.04Q305.52-17.96 304.68-18.74Q303.84-19.52 302.44-19.60L302.44-19.60L302.44-21.20L313.88-21.20L313.88-19.60Q312.44-19.56 311.88-19.18Q311.32-18.80 311.32-17.88L311.32-17.88Q311.32-17.44 311.44-16.92Q311.56-16.40 311.76-15.72L311.76-15.72L314.28-6.36L314.44-6.36L320.04-21.20L323.32-21.20L327.52-6.36L327.72-6.36L330.92-14.64Q331.32-15.64 331.48-16.38Q331.64-17.12 331.64-17.68L331.64-17.68Q331.64-18.72 330.96-19.16Q330.28-19.60 329.12-19.60L329.12-19.60L329.12-21.20L337.72-21.20L337.72-19.60Q337.00-19.60 336.52-19.44Q336.04-19.28 335.56-18.68Q335.08-18.08 334.52-16.84Q333.96-15.60 333.12-13.44L333.12-13.44L327.60 0.40L324.44 0.40L320.20-13.80L320.04-13.80Z"></path>
    <path transform="" stroke="none" d="M353.04-7.60L353.04-11.40Q349.68-9.88 347.98-8.58Q346.28-7.28 346.28-5.88L346.28-5.88Q346.28-4.72 346.92-4.04Q347.56-3.36 348.52-3.36L348.52-3.36Q349.48-3.36 350.32-3.70Q351.16-4.04 351.76-4.60Q352.36-5.16 352.70-5.94Q353.04-6.72 353.04-7.60L353.04-7.60ZM347.40-11.08L353.04-13.52L353.04-15.20Q353.04-17.52 352.22-18.58Q351.40-19.64 349.68-19.64L349.68-19.64Q348.52-19.64 347.92-19.02Q347.32-18.40 346.80-16.96L346.80-16.96Q346.44-15.96 345.78-15.40Q345.12-14.84 343.96-14.84L343.96-14.84Q342.84-14.84 342.24-15.52Q341.64-16.20 341.64-17.44L341.64-17.44Q341.64-19.36 343.74-20.48Q345.84-21.60 350.08-21.60L350.08-21.60Q354.56-21.60 356.48-19.98Q358.40-18.36 358.40-14.56L358.40-14.56L358.40-5.80Q358.40-2.40 359.76-2.40L359.76-2.40Q360.52-2.40 361.16-2.92L361.16-2.92L361.76-1.76Q361.20-0.76 360.02-0.18Q358.84 0.40 357.36 0.40L357.36 0.40Q355.52 0.40 354.56-0.72Q353.60-1.84 353.60-3.88L353.60-3.88L353.40-3.88Q352.24-1.80 350.40-0.72Q348.56 0.36 346.20 0.36L346.20 0.36Q343.68 0.36 342.16-1.06Q340.64-2.48 340.64-4.76L340.64-4.76Q340.64-6.52 342.20-8.06Q343.76-9.60 347.40-11.08L347.40-11.08Z"></path>
    <path transform="" stroke="none" d="M374.52-12.04L374.52-6.52Q374.52-4.88 374.62-3.94Q374.72-3 375.06-2.50Q375.40-2 376.10-1.84Q376.80-1.68 378.00-1.60L378.00-1.60L378.00 0L365.40 0L365.40-1.60Q366.56-1.68 367.26-1.84Q367.96-2 368.34-2.48Q368.72-2.96 368.84-3.84Q368.96-4.72 368.96-6.24L368.96-6.24L368.96-11.24Q368.96-13.60 368.88-15.06Q368.80-16.52 368.68-17.04L368.68-17.04Q368.56-17.56 368.36-17.90Q368.16-18.24 367.76-18.42Q367.36-18.60 366.76-18.66Q366.16-18.72 365.24-18.72L365.24-18.72L365.24-20.08L372.96-21.60L373.48-18.08L373.64-18.08Q374.96-19.76 376.76-20.68Q378.56-21.60 380.72-21.60L380.72-21.60Q383.28-21.60 384.86-20.90Q386.44-20.20 387.68-18.56L387.68-18.56Q388.36-17.64 388.88-16.18Q389.40-14.72 389.40-12.16L389.40-12.16L389.40-6.52Q389.40-4.88 389.50-3.94Q389.60-3 389.94-2.50Q390.28-2 390.96-1.84Q391.64-1.68 392.80-1.60L392.80-1.60L392.80 0L380.28 0L380.28-1.60Q381.48-1.64 382.18-1.82Q382.88-2 383.24-2.48Q383.60-2.96 383.72-3.86Q383.84-4.76 383.84-6.24L383.84-6.24L383.84-11.68Q383.84-13.72 383.60-15.12Q383.36-16.52 382.82-17.38Q382.28-18.24 381.40-18.62Q380.52-19 379.20-19L379.20-19Q377.92-19 377.00-18.28Q376.08-17.56 375.40-16.28L375.40-16.28Q375.04-15.56 374.78-14.42Q374.52-13.28 374.52-12.04L374.52-12.04Z"></path>
    <path transform="" stroke="none" d="M415.40-4.84L416.44-3.32Q414.92-1.64 412.66-0.72Q410.40 0.20 407.76 0.20L407.76 0.20Q405.32 0.20 403.32-0.58Q401.32-1.36 399.88-2.76Q398.44-4.16 397.66-6.14Q396.88-8.12 396.88-10.52L396.88-10.52Q396.88-13 397.72-15.04Q398.56-17.08 400.08-18.54Q401.60-20 403.72-20.80Q405.84-21.60 408.40-21.60L408.40-21.60Q410.20-21.60 411.74-21.24Q413.28-20.88 414.38-20.24Q415.48-19.60 416.12-18.74Q416.76-17.88 416.76-16.88L416.76-16.88Q416.76-15.72 416.10-15.04Q415.44-14.36 414.32-14.36L414.32-14.36Q413.40-14.36 412.70-14.84Q412.00-15.32 411.32-16.40L411.32-16.40Q410.72-17.36 410.30-17.92Q409.88-18.48 409.52-18.78Q409.16-19.08 408.80-19.18Q408.44-19.28 407.92-19.28L407.92-19.28Q405.60-19.28 404.32-17.12Q403.04-14.96 403.04-11.08L403.04-11.08Q403.04-6.92 404.58-4.68Q406.12-2.44 409.00-2.44L409.00-2.44Q410.64-2.44 412.28-3.06Q413.92-3.68 415.40-4.84L415.40-4.84Z"></path>
    <path transform="" stroke="none" d="M440.36-5.12L441.48-3.72Q437.84 0.40 432.40 0.40L432.40 0.40Q429.92 0.40 427.90-0.38Q425.88-1.16 424.44-2.58Q423.00-4 422.20-5.96Q421.40-7.92 421.40-10.32L421.40-10.32Q421.40-12.80 422.24-14.86Q423.08-16.92 424.62-18.42Q426.16-19.92 428.26-20.76Q430.36-21.60 432.88-21.60L432.88-21.60Q437.12-21.60 439.48-19.32Q441.84-17.04 441.84-12.92L441.84-12.92Q441.84-12.28 441.64-12.14Q441.44-12 440.52-12L440.52-12L427.64-12Q427.48-11.64 427.48-10.68L427.48-10.68Q427.48-6.76 429.18-4.48Q430.88-2.20 433.80-2.20L433.80-2.20Q435.48-2.20 437.14-2.96Q438.80-3.72 440.36-5.12L440.36-5.12ZM427.92-14.24L433.72-14.24Q435.32-14.24 435.78-14.42Q436.24-14.60 436.24-15.28L436.24-15.28Q436.24-17.04 435.24-18.16Q434.24-19.28 432.72-19.28L432.72-19.28Q431.00-19.28 429.66-17.86Q428.32-16.44 427.92-14.24L427.92-14.24Z"></path>
    </g>
        </svg>
      </g><g opacity="1" transform="rotate(0 89.892 0)">
        <svg width="120.216" height="75.0722" x="89.892" y="0" version="1.1" preserveAspectRatio="none" viewBox="19.96575927734375 50.00175476074219 160.13107299804688 99.9982452392578">
          <g transform="matrix(1 0 0 1 0 0)"><g><path d="M62.3 150c29.9-1.2 80-13.5 93.3-19.7.3-.1.5-.3.8-.4-.2-.6.7-.8 1.3-1.1.1.1.1.3.1.4 10.1-5.4 17.5-14.7 20.6-25.7-.1 0-.2-.2-.3-.3-.1.2-.3.4-.5.5-.5-.6.6-1 1-.6 2.4-8.7 1.9-17.9-1.4-26.3-.3.3-1 .1-1.3 0 0-.5.7-.3 1.2-.3-.3-.7-.5-1.3-.8-2-2.4-5.3-5.9-10-10.3-13.9 0 .2-.1.3-.5.2.1-.3.2-.4.2-.4-1.6-1.4-3.3-2.7-5-3.8l-.3.3c0-.2-.1-.4-.1-.6-2.5-1.6-5.2-2.8-7.9-3.8 0 .5-.1 1.1-.6.8 0-.4.3-.7.6-.8-1.4-.5-2.9-.9-4.3-1.3 0 .2-.2.4-.8.4.1-.2.2-.3.4-.5-9.1-2.1-18.6-1.2-27.1 2.8-13.5 6.2-55.1 36.5-75.4 58.7 31.6-17.9 62.5-27.8 63.4-25.8.8 1.7-7.5 6.2-24.1 15.5-4.9 2.7-10.4 5.8-16.7 9.4C44.5 125 18.9 144.2 20 146.6c1.3 2.8 37.4-4.4 58-12.6 30-12 44-17.8 45.1-15.5 1 2-29 19.6-60.8 31.5zm111.4-78.4l.6-.3.2.4-.6.3-.2-.4zm-47.9 32.9c-.3.1-.4-.3-.5-.6.3-.2.5 0 .6.3-.2 0-.1.2-.1.3zm-5-11.5c-.2-.3 1-.8.7-.1.1-.1-.7.1-.7.1zm14.5 28.3c.1.7-.7 0-1.1.5-.1-.6.9-.6 1.1-.5zm4.9 13.4c.3-.1.5.2.8.1.2.7-.8.5-.8-.1zm-.9-5.8l-.2.1.1.2c-.2 0-.3-.1-.5 0v-.4l-.3.3-.6.3c0-.6.7-1 .9-1.5.4-.3.4.7.6 1zm-4.1-10.8l.6-.3.2.4-.6.3-.2-.4zm-6.5-13.5l-.2-.4c.2 0 .2-.2.1-.3.4-.4.8.8.1.7zm4.3 8.8c0-.4.5-.6.9-.9.5.6-.5.6-.9.9zm-12.9-27.6c-.1-.8.8 0 1 .4-.5.2-.6-.6-1-.4zm-.9-2c-.1-.6 1-.6 1.1.1-.5-.1-.8-.2-1.1-.1zm-5.3-12c-.6.6-.5-.7-1.1-.1-.1-.4 1.1-.5 1.1.1zm24.8 51.7l-.3-.3h-.4l-1.1.5c-.1-.6.6-.9.3-1.5.4.1.8 0 1.2-.3-.3.4.7 1.3.3 1.6zm-6.1-13.2c-.6.2-.4-.9.1-.9.1.4-.2.6-.1.9zm-.8-4.2c-.2 1-1.4-.1 0 0zm2.1 3.1c.2 0 .3.1.5 0l.2.4c-.3.3-.8.3-1.2.3 0-.3.7-.3.5-.7zm1.1 1.1c-.2.9-1.5.4 0 0zm.7 1.1c.1 1.2-1.5.3 0 0zm-5-9.4l-.5-1.1c.4-.2.6.1 1-.2.1.5 0 1-.5 1.3zm-2.2-5.2c.2-1 1.1.9 0 0zm-9.1-20.5c.3 0 .6.2.7.5-.3.1-.6-.1-.7-.5zm9.2 18.5l-.4.2c.1-.3 0-.5-.1-.8.3 0 .3.4.6.3.2.2.1.3-.1.3zm-1.6-3.6c-.1-.6 1.1-.5 1.2.3-.4-.1-.7-.4-1.2-.3zm-5.4-22.4c.5.2.9.6 1 1.2-.6.5-.6-.8-1-1.2zm3.8 2.6c.6-.2.8.6 1 1.1-.6.6-.7-.7-1-1.1zm4.7 8.6c.2.4.1 1-.3 1.2 0 0-.1 0-.1.1-.1-.6-.5-.8-.9-.4 0-.3.4-.5.1-.9.6.3.7.7 1.2 0zm6.9 13.9c-.5.5-.7-.1-1.2.3-.2-.8.9-1.6 1.2-.3zm1.9 5.7c-.3-.4.3-.5.1-.9.6-.1.4.9-.1.9zm-6.7-15.1l-1.1.5c.1-.3 0-.7-.2-1 .6-.1 1.1-.3 1.3.5zm-.6 4.9c-.2-.1-.7-.1-.6.3-.4.3-.5-.7-.7-1 .4.1.9-.1 1.4-.4.1.5-.5.6-.1 1.1zm-.6-1.9c.2.6-.9.6-1.1.5-.2-.4 0-.6-.2-1 .7-.6.7.9 1.3.5zm-1.5-1.5c0-.4.3-.7.9-.9 0 .5-.2 1.2-.9.9zm-3.4-4.6c-.1-.3.4-.4.7-.6.1.3-.4.4-.7.6zm8.6 12.5c.7-.1.3 1-.3 1-.3-.5.5-.5.3-1zm-3.6-7.3c.6-.6.7.1 1.1 0 .1.6-1.2 1-1.1 0zm-2.9-8.6l-.4.2c0-.2-.2-.2-.3-.1-.4-.5.7-.8.7-.1zm.2 1c.5.8.1 1.1-.7 1.4-.2-.4-.5-.4-.6-.8l1.3-.6zm-3.2-.2c.4-.4-.1-1.1 0-1.6.8.1.6 2 0 1.6zm1.7 1.4c0 .6-1.2.3-1.4-.2.6-.4.8.4 1.4.2zm-6.4-11.1c-.7.3-1.1-.4-1.8 0 .1-.9 2.2-1 1.8 0zm-4.1-2c-.2-1.1.7-.3 1.3-.6.2.6-1 .7-1.3.6zm23.8 51.1c0-.4.3-.7.9-.9.5.6-.6.6-.9.9zm-3.2-8.5c1.8 1.1-.5-.4 0 0zm9.5 21.3c1.2.7.2 1.7 0 0zm0-.5c.1-.4 0-.9-.3-1.2.7-.6.9 1.1.3 1.2zM127.2 89c.2-.6.6-1.1 1.2-1.4.2.4 0 .6.2 1-.5.2-.8-.1-1.4.4zm6.5 9.5c1.2.7-.7 1.4 0 0zm-2.6-6.7c.7-.3.4.5 1.3.5.2.6-.6.9-1 .7-.3-.5.2-.7-.3-1.2zm3.2 6.4c.3-1.2 1 .3 0 0zm9.2 18.2l-.4.2-.2-.4.4-.2.2.4zm-4.7-7.8c-.7-.5.5-.4 1-.2.1 1.1-1.1-.8-1 .2zm-2-6.2c-.6.2-.9-.6-.7-1 .3-.2.5 0 .7-.1.4.6-.2.7 0 1.1zm13.5 25.5c-.7.7-.5-1-1.2-.3l-.6-1.3.9-.4c-.2.7.3.4.7.5.1.5-.2.9.2 1.5zm-5.2-9c.1-.5 1-1.4 1.4-.4-.2.7-.9.4-1.4.4zm-5-12c-.3-.8.9.1.5-.5.3-.1.2.2.1.2.1.2.3.1.4.4.8.2-.6-.2-1-.1zm-1.5-6.1c-.6.1-.9-.6-1.5-.4.1-1 1.1-.2 1.6-.5.1.3-.2.5-.1.9zm-2.5-4.3c.5-.3 1-.3 1.2.3-.4.1-.9.3-1.2-.3zm6.3 10.9c-1.2-.2.9-1.8 1.1-.5-.4.6-1.2-.2-1.1.5zm4.5 6.9c-.2 0-.3-.1-.5 0l-.2-.4c.4-.4.5.1.7.4zm3.3 8.2c-.3-.1-.4-.2-.2-.4 1.1-1.3-.1.4.2.4zm-5.9-16.7c-.3.3-.8.4-1.2.3-.2-.4 1.2-1.2 1.2-.3zm-18.7-40.2l.6-.3c.6.6-.6.5 0 1.1-.2-.1-.5 0-.7.1 0-.3.4-.5.1-.9zm-1.5-2.8c.3-.1.5.2.8.2.2.5-.8.3-.8-.2zm2.4 4.3c.3-.1.4.5.6.8-.5.1-.7-.4-.6-.8zm.3-.7c.9-.5.9.5.7 1-.3 0-.3-.3-.7-1zm27.1 59.8c0-.2.1-.3 0-.5l.4-.2c.4.4 0 .6-.4.7zm-3.6-7.8c0-.2.1-.3 0-.5l.4-.2c.4.4 0 .5-.4.7zM128 68c.9-.5.6.9.8 1.2-.5.3-.5-.8-.8-1.2zm4.2 5.7c0 .4-.3.6-.6.8-.6-.5.2-.6.6-.8zm-2.1-3.4c.4-.1.7.2.8.7-.5.5-.6-.3-.8-.7zm-1.1-3.5c-.3 1.1-1.1-.4 0 0zm-3.9-6.9c.4-.1.7.2.8.7-.3.2-.6.1-.8-.2-.1-.2-.1-.3 0-.5zm11.7 24.4c.1.3-.2.5-.1.9-.6.1-.5-.9.1-.9zm2.6 6.9c.4-.2.6.1 1-.2.4.7-.3 1-.3 1.5-.8.1-.4-.9-.7-1.3zm3.2-1.5c.1.3-.2.5-.1.9-.6.1-.4-.9.1-.9zm-6.4-13.5c-.1-.4.1-.7.6-.8.1.4-.1.6-.6.8zm3.9 12.5c-.6-.6.5-.7.9-.9.2.5-.4.7-.9.9zm8.5 16.4c-.5.4-.6-.2-1.1 0-.6-.8.3-1-.3-1.8.7.2 1.1.9 1.4 1.8zm5.2 12.3c-.5-.6 0-.8-.1-1.3.5-.1.8 1.2.1 1.3zm-21.1-44.8c.2-.6-.7-.7.2-1.2.4.6.4 1-.2 1.2zm-1.3-4l-.9.4c-.3-.7.6-1.3.9-.4zm23.4 52.1c.2.9-.9.4-1.5.7.1-.3 0-.5-.1-.8l.9-.4c.2.1.3.6.7.5zm0 4c-.5.2-.5-.9-.8-1.2.7-.6.8.6 1.3.5 0 .3-.7.4-.5.7zm1-.1c-.2.9-1.5.3 0 0zm1.8 2.9c0 .2.2.2.3.1.1.4-.3 0-.6.3-.3-.5.5-.5.3-1 .4 0 .2.4 0 .6zm-1.5-3.9c-.1-.8.3-.3 1-.7.2.5-.7.4-1 .7zm1.9 1.3c-.6-.2-.3.4-1 .2-.2-.4 1-1 1-.2zm-12.1-25.3c.6.2.3-.1.9-.4.5.8-.7 1.3-.9.4zm-2.7-7.4c.8 0-.2-.8.7-.8l.3.3.3-.3c.5.8-.1 1.1.3 1.8-.8.2-1.1-.6-1.6-1zm12.2 23.6c.1.5-.3.4-.5-.6-.2-.7.4.4.5.6zm-5.3-13.3c-.3 1.2-1.1-.3 0 0zm-7.7-21.1c.2.6-.6.9-1 .7-.2-.4.8-.4 1-.7zm-7.4-15c1.3.7-.6 1.4 0 0zm12.8 26.1c-.2.9-1.5.4 0 0zm1.1 3c0 .4-.3.7-.9.9-.5-.7.4-1.1.9-.9zm4.1 11.7c.6-.3 1.3-.6 1.6.1-.6.1-1.3.5-1.6-.1zm2.9 3c-.7-.2-.2-.9-.8-1.2l.6-.3c.3.5-.2.8.2 1.5zm-5.7-10.7c0-.4.3-.7.9-.9.3.8-.3.8-.9.9zm-12.5-28.9c-.7.1 0-.6-.4-.9l.6-.3c.8.7-.9.5-.2 1.2zm15.3 30.3c-.1-.4-.4-.3-.6-.3l-.4-.6c.3.1 1.9.6 1 .9zm-6.8-16.4c.3-1.1 1 .4 0 0zm2.5 3.8c1 .2-.9 1 0 0zm10.1 23.2c-.4-.7.3-1 .3-1.5.8.1.5 1.4-.3 1.5zm-12.7-29.4c-.3-.5-.2-.8.3-1-.1.4.4.9-.3 1zm6.4 9.3c.1.4-.1.7-.7.8-.5-.5.3-.6.7-.8zm3 .5l-.6.3-.2-.4.6-.3.2.4zm3.8 7.7c.2.4-.9.4-1-.4.5-.1.6.7 1 .4zM150.2 83c-.8-.3-.6-.7-.9-1.5l.6-.3c.4.5.5 1.2.3 1.8zm4 8.2c1 .2-.9 1 0 0zm3.1 7.4c-.4.1-.7-.2-.8-.7.4-.1.7.2.8.7zm-4.6-7.3c.4-1.1 1.4.1 0 0zm-2.5-4.8c-.1-.4.1-.7.6-.8.6.5-.2.6-.6.8zm-.8-1.8c.2-1 1 .9 0 0zm-4.2-8.1c-.8 0-.2-.9-.3-1.2.3-.1.4.5.6.8-.3.1-.4.2-.3.4zm14.6 30.7c-1.5.5-.9-1.1 0 0zm-5-10.2c-1-.6 1.1-.7 1.1.6-.7.4-.6-1.5-1.1-.6zm5.1 9.9c.6.1 1.4-.1 1.8.5-.7-.1-1.5.4-1.8-.5zm1.8 1.8c.5-.1.8.2 1.3 0 .5-.6-.7 1.6-1.3 0zm2.8 2c-.7-.1-.5-.5-1.3-1l1.5-.7c.5.8-1 .8-.2 1.7zm-13.3-32.4c.3-.4.3-.8.8-1.2-.1.6-.1 1.5-.8 1.2zm13.3 24.5c0-.1-.8.1-.7.1-.3-.3 1-.8.7-.1zm-2.7-3.6c-.2 0-.3-.1-.5 0l-.2-.4c.4-.4.5.1.7.4zM146 66.5c-.3 1.1-1.1-.3 0 0zm17.2 35.9c.1.6-.9 0-1.3 0 0-.5 1 .1 1.3 0zm5.3 13.8c-.4-.7.1-.9.8-1.2 0 .6-.3.9-.8 1.2zm-3.8-10.1c-.2-.5.9-.5 1.2-.8.2.6-.8 1-1.2.8zm-4.9-13.5c-.6.4-.4-1.3-.9-.9 0-1 1.3.4.9.9zM145 60.4c1.2-.4-1.3.5 0 0zm12 25.7c-.1-.5 1-.6 1.4-.9.3.6-1 1-1.4.9zm14.2 27.5c-.3-.4.1-.6.4-.7.1.3-.1.6-.4.7zm-4.2-9.1c-.1-.5 1-.6 1.4-.9.3.6-1 1-1.4.9zm4.4 5.5c-.3-.1-.2-.1-.1-.2.8-1.1.3.3.1.2zm-7.8-17.5c.3.3.8 0 1.1.6-.6.3-.9 0-1.1-.6zm.9 1.5c-.1-.7.9-.3 1 .4-.6.6-.5-.8-1-.4zm5.9 11.6c-.3.1-.4-.3-.5-.6.6 0 .9-.3.5.6zm1.9 4.3c-.1-.3.2-.5.1-.9.8-.2.8.7-.1.9zm-.8-1.3c-.6-.6.6-.5 0-1.1.3 0 .5.4.8.2.3.5-.2.7-.8.9zm-9-20.7c.7 0 1.6-.4 2 .4-.8.2-1.7.7-2-.4zM170 99c.1-1.1 1.8.2.5.6-.1-.3-.3-.6-.5-.6zm-8.4-22.7c-.3 0-.6-.2-.7-.5.3 0 .6.2.7.5zm-3-4.8c.5-.1.9.3.9.7 0 .2 0 .4-.1.5-.6-.2-.7-.6-.8-1.2zm6.3 12c.5.6-.3.6-.7.8-.1-.4.2-.6.7-.8zm3.6 6.7c-.5.1-.7-.4-1.2-.3 0-.6 1 0 1.2.3zm-9-24.8c.1-1.1.7.7 1.2.3 0 .6-1.4 1-1.5.1l.6-.3c-.1-.2-.2-.1-.3-.1zm-1.5-5.5c.3-.2.5 0 .7-.1.3.7.3 1.3-.2 1.7-.6-.7-.1-1-.5-1.6zm7.1 13.8c0-.8.9-.2 1.2-.3.1.4-.9.2-1.2.3zm-.3 1.2c.4 0 1-.8 1.2-.3.6.5-1.1.9-1.2.3zm-3.7-5.4c-.6-.2-1.1-.5-1.5-.9-.2-.6.5.1.9-.4.2.7.9.7.6 1.3zm1.5 3.9c-.1-.6 1-.6 1.1.1-.4 0-.7-.1-1.1-.1zm1.4 1.3l.3.7-.6.3c-.2-.3 0-.5-.1-.8l.4-.2zm6.7 14.5c-1.2.2-.8-.9 0 0zm2.6 6.4c0 .2-.1.3 0 .5-.2 0-.3-.1-.5 0 0-.2.1-.3 0-.5.2-.1.3.1.5 0zm-8-16.3c0-.4.3-.7.9-.9.5.6-.5.6-.9.9zm-5.4-12.4c.2.1-.6 1-.5.5-.1-.1.2-.7.5-.5zm-1.8-2.2c-1.3.9-.9-.8 0 0zm4.2 8.6c.2 1-1 .6-1.3 0 .6-.4.7.5 1.3 0zm.5 1.7c.6.9-.8 1.3-1 .2.4 0 .7 0 1-.2zm3.6 7.8c-.6.2-1.1.5-1.4-.2.2-.5 1.1-.5 1.4.2zm9 17.3c-1 .4-1.7.1-2.7.4-.1-.6.4-.9.3-1.5 1-.1 1.8.3 2.4 1.1zm-3.3 2c-.3-.6.8-1 1.2-.8.3.6-.7 1-1.2.8zm2.1 2.3c.3.4-.8.8-.7.1.3-.3.5 0 .7-.1zm-3.8-10.1c-.8-.6.5-1.6 0 0zm-3.2-4.8c-.7.4-1.3.5-1.5-.4.4.2 1.2-.5 1.5.4zm3.5 10.6c-.3-.4.8-.8.7-.1l-.4.2c0-.2-.2-.2-.3-.1zm5.2 9.5c-.3.1-.4-.6-.7-.5-.1-.8 1 .1.7.5zm.6-.8c-.4-.2-1.2-.3-.9-.9.5-.1 1.1.2.9.9zm-2.6-6.2c1.2.3-.3 1.1 0 0zm1.4.2c-.1-.5-.1-1 .1-1.4.7-.6.6 1 1.4.2.5.8-.9 1.4-1.5 1.2zM168 82.3c0-.3.5-.4.6-.3.5.4-.5.9-.6.3zm7.9 12.7l-.4.2-.2-.4.4-.2.2.4zm-3.2-3.5c-.1-.6.6-1.4 1.3-1.1-.1.5-.7.8-1.3 1.1zm-5.3-15.6c-.3-.5.7-.5 1-.7.2.4-.8.4-1 .7zm-3-9.8c.2.9-.6.4-1.2.8-.1-.5.9-.5 1.2-.8zm-1.1-1.4c1-.3.5 1.5 0 0zm1.4 1.3c.7-.2.6-.8 1.4-.9.9 1.1-1.1 1.7-1.4.9zm12 23.4c1.1.3-.3 1.1 0 0zm-1.7-.3c-.2 0-.3-.1-.5 0l-.2-.4c.3-.1.4-.2.3-.4.5-.3.4.7.4.8zm-10.3-19.6c.5-.1.1-.6.4-.7l.3.3.3-.3.7 1.6c-.6.4-1.3.2-1.7-.3l.3-.3-.3-.3zm4.3 9.4c0-.2.1-.3 0-.5l.4-.2c0 .3-.1.5.2.4.1.5-.3.2-.6.3zm9.6 19.1c.3-1.1 1 .4 0 0zm-1.8-3.8l-.4-.9c.6-.5.8 0 1.3 0 .2.5-.3.7-.9.9zm1.9-1.1c-.2 0-.3-.1-.5 0 0-.2.1-.3 0-.5.2 0 .3.1.5 0 0 .2-.1.3 0 .5zM171 75.3c.2 1.4-1.4-.9 0 0zm5.1 10.6c.3-.1.4.4.6.3.2.6-.6.3-.6-.3zm2.9-2.2c-.7.3-1.1-.3-1.5-.9.6.1 1.2.5 1.5.9zm-9.6-18.6c0 .9-.8-.1-1.1 0 0-.7.8.3 1.1 0zm4 13.1c-.1-.5-.9-1.3-.5-1.7.7-.4 1 1.6.5 1.7zm-.6-2.4c-.7.1-1.6-.8-1.5-1.5.7-.1 1.1.6 1.5 1.5zm-4.6-9.5c-.3.9 1.2.7.3 1.2-.3-.4-.5-.9-1.1-.6-.1-.3.5-.4.8-.6zm-2.8-3.1c.2.4.5.3.6.8-.2.5-1.2.8-1.8 1.1-.3-.5.2-.7-.3-1.2.9-.5 1-.1 1.5-.7zm-3.7-4.8c0 .5-.6.9-1.3 1.1 0-.8.5-.8 1.3-1.1zm-1.8-.5c0-.1-.8.1-.7.1-.3-.4 1-.9.7-.1zm1.5 5c.3 0 .5.1.4-.2 1-.2-.3 1.3-.4.2zm-4-5.5c0-.4.3-.1.8-.6.6.7-.6.7-.1 1.4-.9.3-.2-1.1-.7-.8zm-1.4-2.3c-.2.7 0 1.5-1 1.8-.5-.9.3-1.4 1-1.8zm.7 3.7c.5.6-.6.6.1 1.3-.5-.2-.9-.9-1.5-.9.2-.7.9-1 1.4-.4zm-3.1-1.5c.4-.1.3-.5.8-.6-.1.3 0 .7.2 1-.3.2-.5 0-.7.1l-.3-.5zm1.8 4.3l1.1-.5c.1.5-.4.7-.2 1.2-.5.1-.7-.2-.9-.7zm12.7 26.6l.4.9c-.5.1-.7-.4-1.2-.3 0-.3.5-.4.8-.6zm-6.4-11.1c1.2.4.5 1.7 0 0zm-5.9-13.5c-.6.6-.5-.6-1.1-.1-.1-.6 1.1-.6 1.1.1zm-1.8-2.7c-.4 1.1-1.4-.1 0 0zm-4.7-8.7c.8-.4.6 1.1.9.9 0 .8-1.2-.5-.9-.9zm2.4 5.4c1.1.3-.3 1.1 0 0zm10.2 21.1c.1.8-.8 0-.9-.4.6-.7.4.7.9.4zm4.3 8.8c.6.7-.5.8-.4 1.3-.3.1-.2-.2-.1-.2-.3-.7-1.2-.8-.9-1.5 1.1-.6.3 1 1.4.4zm-9.5-15.7l-.6-1.3c.9-.6 2 1 .6 1.3zM148 52.3c.2.4 0 .6.2 1-.3.1-.6 0-.7-.3-.1-.3 0-.6.3-.7h.2zm7.1 17.3c.1-1.3 1.4.1 0 0zm2.3 4.9l.4-.2c.3.4-.1.6-.4.7 0-.2.1-.3 0-.5zm3.5 7c-.3 1.2-1-.3 0 0zm-13-25.9c.2.4-.5.6 0 1.1-.8.1-.2-.8-.2-1-.4-.2 0-.1.2-.1zm-2-3.4c.1.3-.2.5-.1.9-.2.1-.2 0-.3-.1-.5 0 .1-.3.4-.8zm0 2.9c.4-.3.6.1.7.5l-.6.3c.1-.3.1-.5-.1-.8zm3 6l-.4.2c0-.2-.2-.2-.3-.1-.3-.4.8-.8.7-.1zm2.2 3.6c0 .4 0 .9-.5 1.1-.3-.1-.4-.6-.7-.5-.1-.8.8-.1 1.2-.6zm-6.1-9.9c.2.4.1 1-.3 1.2 0 0-.1 0-.1.1.1-.5-.2-1.1.4-1.3zm-1.9-.2c.6.6-.7 1.6-1 .7.2-.4.6-.7 1-.7zm2.9 10.8c-.3-.4.1-.6.4-.7.1.3-.1.6-.4.7zm-1.8-1.1c-.1-.5 1.1-.7 1.3-.6-.1.6-.1 1.3-.8 1.7-.3-.3.2-1.2-.5-1.1zm14.3 29.5c.3.6-.7.9-1 .2.4-.3.6 0 1-.2zm-21.4-43.3c.1.3-.1.6-.4.7-.4-.3.1-.5.4-.7zm3 7.1c0 .5 0 1-.8 1.2 0-.5 0-1 .8-1.2zm2.8 10.1c.2 0 .3.1.5 0 0 .2-.1.3 0 .5-.2 0-.3-.1-.5 0-.1-.2.1-.3 0-.5zm1.9 4.8c-.5.3-.5-.5-.9-.4-.1-.7.9-.3.9.4zm-4.3-7.3c-.7-.1-.6-1.3-.5-1.7.9.3-.2 1.1.5 1.7zm-4.9-10.5c.5.7-.4 1.2-.9.9-.1-.4.4-.7.9-.9zm-3.7-3.6c.5-1.3 1.1.2 0 0zm1.4 2c.1.3-.1.6-.4.7-.3-.4.1-.5.4-.7zm2.6 4.5c0 .8-.9.9-1.3 0 .6-.2.9.1 1.3 0zm2.7 6.9c-.6.7-.5-.7-.9-.4-.2-.7.8-.3.9.4zm-7-13c-1.1-.4-.2-1.7 0 0zm8.8 19.2c.3 0 .6.2.7.5l-.6.3c0-.3 0-.6-.1-.8zm.9 2.6c.6.1.5 1.5-.6 1.6-.1-.3-.2-.4-.4-.3-.2-1.1 1.1-.4 1-1.3zm-.6-.8c.1.4-.1.7-.7.8-.1-.4.2-.7.7-.8zm-1.2-1.9c.5 0 .2.4.3.7-.4-.1-.2-.5-.3-.7zm-7-16c-.6.5-.9.1-1.4.4-.2-.4 1.3-1.3 1.4-.4zm2.8 8.4c-.7.3-.9-.4-1.3-1 .6.2 1 .5 1.3 1zm1.7 4.4c0 .4-.3.7-.9.9-.5-.6.6-.6.9-.9zm-8.2-14.6c.7-.3 1.4 1.3.4 1.4-.3-.5 0-.8-.4-1.4zm2.3 6.2c.6 0 1 1 1.6 1.2.2.6-.5-.1-.9.4l-.7-1.6zm7.4 16.1c.2-.7-.5 1.8 0 0zm3.7 9.1c1 .3-.9 1.1 0 0zm-13.9-28.5c.2 0 .2-.2.1-.3.2-.1.2 0 .3.1l.2.4c-.4-.1-.8 0-1.1-.6.3-.1.4.2.5.4zm2.9 6.2c-.2 1-1.2-.3 0 0zm2.4 7.1c.1.8-.7 0-1 .2-.1-.3.4-.4.8-.6 0 .2-.1.4.2.4zm-6.8-12.1c1-.3.4 1.4 0 0zm.4 1.5c.4-.3.6.1.7.5-.2 0-.3-.1-.5 0l-.2-.5zm-.8-1.3c-.5.1-1-.3-1.2-.8.6-.1 1.1.3 1.2.8zm1.6 3.6c-.4.2-.5-.7-1-.4 0-.7 1.4-.1 1 .4zm1.3 4.5c-.5-.1-.9-.2-1.4-.2-.3-.6.2-.6-.4-.9l.2-.1-.1-.2.6-.3.1.5.4.1c.3.8.8.5.6 1.1zm-3.9-7.4c.6.2.7.6.8 1.2-.4.3-.5-.8-.8-1.2zm-.8-.7l-.6.3c-.3-.4-.1-.7-.2-1 .3-.1.6.2.8.7zm-1.6-3.3c0 1-.7-.4-1.1-.1 0-.6.9.1 1.1.1zm-.7.6c0 .4-.3.7-.9.9-.2-.5.3-.7.9-.9zm.1 3.2c.1.4-.1.7-.6.8-.5-.5.3-.6.6-.8zm-.4 2.9c.4-.3.8-.1 1 .4l-.6.3-.4-.7zm12.1 26.9c-.3-.4-.1-.7-.2-1 .3-.2.9 1.1.2 1zm-6.3-12c0-.2.1-.3 0-.5l.4-.2c.3.4-.1.6-.4.7zM119.4 56c-.4.1-1 .3-1.2-.3.6-.3 1-.3 1.2.3zm5.6 14.5c-.3.1-.2-.2-.1-.2 0-.2-.2-.2-.3-.1-.1-.9.7-.1.4.3zm-2.1-3.9c-.7-.1-1.4 0-1.9-.8.8-.3 1.6.1 1.9.8zm-7.1-8.1l.4-.2.2.4-.4.2-.2-.4zm4.3 5.9c-.2.6-.6 1.1-1.2 1.4-.3-.8.5-1.1 1.2-1.4zm-1.2 3c.4-.3.6-.1 1-.2.2.3-1.1.9-1 .2zm-2.6-5.1c-.2 1-1.2-.4 0 0zm-1.9-1.3c.7-.7-1 1.3 0 0zm.2 1.6c.4-.7-.1.8-1 .7-.1-.9.4-.3 1-.7zm-1.7-.9c-.4.3-.6.1-1 .2.2-.4.2-.9.8-1.2 0 .4 0 .7.2 1zm-1.6-1.9c.5.6.2.9.1 1.3-.2.2-.8-1.3-.1-1.3zm14.1 32.5c.4-.3.5.3.8.2.3.3-.8.3-.8-.2zm1.7 5.4l-.4.2c-.2-.3 0-.5-.1-.8l.4-.2c.2.4 0 .5.1.8zM121.3 85c-.5.3-.8-.2-1.1-.6.5-.4.8-.1 1.1.6zm-6.2-12.9c.7.2-.3 0-.5 0-.8 0 .4-.6.5 0zm-3.2-5.3c.5.6.2.9.4 1.4-.4-.3-.8-.4-1.2-.8.4-.1.4-.5.8-.6zm-.5 2.9c.3.1.7 0 1-.2.2.4-1 1-1 .2zm16.1 34.6c.2.6-.9.6-.8-.2.4-.3.5.3.8.2zm-6.6-13.2c.2.5-.3.7-.9.9-.2-.4-.5-.4-.6-.8.4-.2.5 0 .3.1.3.5.9-.2 1.2-.2zm-3-3.3c.3.1.5.3.7.5.2.6-.6-.1-.7-.5zm-7.4-19c-.1.8-.5.5-1.2.8.2-.6.6-.7 1.2-.8zm-1.3 1.7c.3-.1.5-.2.6.3l-.4.2-.2-.5zm24.8 54.1c.5-.6 1.3 1.2.5 1.1l-.5-1.1z" data-color="1" class="icon1Vhde1nJ-V"></path></g></g>
        </svg>
      </g></svg>